<?xml version="1.0" standalone="no"?>
<!DOCTYPE svg PUBLIC "-//W3C//DTD SVG 20010904//EN"
 "http://www.w3.org/TR/2001/REC-SVG-20010904/DTD/svg10.dtd">
<svg version="1.0" xmlns="http://www.w3.org/2000/svg"
 width="192.000000pt" height="192.000000pt" viewBox="0 0 192.000000 192.000000"
 preserveAspectRatio="xMidYMid meet">
<metadata>
Created by potrace 1.11, written by Peter Selinger 2001-2013
</metadata>
<g transform="translate(0.000000,192.000000) scale(0.100000,-0.100000)"
fill="#000000" stroke="none">
<path d="M1820 1454 c-25 -8 -57 -16 -71 -19 -14 -3 -79 -19 -145 -36 -65 -17
-127 -33 -136 -35 -10 -2 -28 -7 -40 -10 -13 -3 -30 -7 -38 -9 -8 -2 -16 -4
-17 -5 -7 -6 -97 -24 -105 -22 -5 1 -8 -2 -8 -6 0 -4 -8 -8 -17 -9 -42 -3 -63
-8 -63 -14 0 -4 -6 -6 -12 -5 -13 1 -111 -21 -138 -31 -8 -3 -19 -7 -25 -8
-194 -47 -278 -72 -250 -76 6 0 21 -2 35 -4 14 -2 50 -7 80 -10 30 -3 66 -8
80 -10 14 -2 48 -7 75 -10 28 -3 68 -8 90 -11 22 -2 50 -5 63 -6 12 -1 22 -6
22 -12 0 -14 -93 -200 -103 -204 -4 -2 -5 -8 -1 -13 3 -5 0 -9 -5 -9 -6 0 -10
-3 -9 -7 2 -12 -13 -44 -33 -74 -10 -14 -16 -29 -12 -33 3 -3 2 -6 -4 -6 -8 0
-33 -41 -33 -55 0 -14 21 -1 56 35 21 22 42 40 47 40 4 0 24 16 45 36 104 101
269 244 281 244 6 0 11 4 11 9 0 6 234 216 405 364 17 14 28 27 25 30 -3 3
-25 -2 -50 -9z"/>
<path d="M629 1028 c-30 -24 -66 -52 -79 -63 -48 -39 -269 -268 -265 -274 2
-4 -7 -15 -21 -25 -13 -11 -24 -22 -24 -27 0 -4 -13 -23 -30 -41 -17 -18 -30
-38 -30 -45 0 -7 -4 -13 -9 -13 -4 0 -20 -17 -34 -37 -15 -21 -36 -51 -48 -68
-12 -16 32 24 97 90 66 66 135 134 154 151 60 52 153 128 195 159 22 16 42 32
45 35 11 13 119 80 129 80 6 0 11 4 11 10 0 5 11 12 25 16 14 3 25 10 25 14 0
4 9 10 20 13 20 5 28 27 10 27 -5 0 -10 -4 -10 -10 0 -5 -8 -10 -17 -10 -10
-1 -36 -7 -57 -15 -22 -8 -43 -12 -48 -9 -4 3 -1 21 7 41 8 20 14 38 12 40 -2
2 -28 -16 -58 -39z"/>
<path d="M1010 1060 c-68 -12 -77 -15 -94 -29 -9 -7 -16 -10 -16 -7 0 4 -10
-2 -22 -13 -11 -11 -24 -18 -28 -16 -5 3 -10 -2 -14 -10 -3 -8 -10 -15 -16
-15 -6 0 -42 -23 -82 -52 -55 -40 -67 -53 -53 -58 15 -5 16 -7 1 -19 -9 -7
-16 -10 -16 -5 0 5 -5 1 -11 -8 -5 -10 -17 -18 -24 -18 -8 0 -15 -5 -15 -11 0
-5 -4 -7 -10 -4 -5 3 -10 2 -10 -2 0 -5 -28 -27 -62 -50 -35 -23 -80 -57 -101
-75 -21 -18 -54 -46 -75 -63 -55 -45 -257 -249 -283 -287 l-22 -33 34 33 c19
17 38 32 42 32 4 0 20 12 36 27 48 47 80 73 256 213 207 165 241 190 253 190
6 0 13 7 16 16 3 8 10 13 15 9 5 -3 12 -1 16 5 7 11 227 121 250 124 17 2 57
43 99 99 l28 37 -23 -1 c-13 -1 -44 -5 -69 -9z"/>
<path d="M898 815 c-20 -7 -39 -11 -42 -8 -3 4 -6 1 -6 -5 0 -7 -8 -12 -17
-12 -34 0 -195 -97 -254 -152 -11 -10 -19 -15 -19 -11 0 4 -9 -3 -21 -15 -11
-13 -38 -34 -60 -47 -47 -30 -52 -42 -6 -18 17 9 34 18 37 18 3 1 28 12 55 27
28 14 73 33 100 43 28 10 56 23 63 28 6 5 12 7 12 5 0 -3 26 1 58 8 31 8 72
14 91 14 33 0 33 0 17 25 -28 42 -21 60 34 98 29 20 10 21 -42 2z"/>
</g>
</svg>
