<?xml version="1.0" standalone="no"?>
<!DOCTYPE svg PUBLIC "-//W3C//DTD SVG 20010904//EN"
 "http://www.w3.org/TR/2001/REC-SVG-20010904/DTD/svg10.dtd">
<svg version="1.0" xmlns="http://www.w3.org/2000/svg"
 width="656.000000pt" height="656.000000pt" viewBox="0 0 656.000000 656.000000"
 preserveAspectRatio="xMidYMid meet">
<metadata>
Created by potrace 1.11, written by Peter Selinger 2001-2013
</metadata>
<g transform="translate(0.000000,656.000000) scale(0.100000,-0.100000)"
fill="#000000" stroke="none">
<path d="M3790 5689 c0 -5 5 -7 12 -3 6 4 18 -2 26 -12 14 -18 14 -18 8 -1 -3
10 -6 21 -6 23 0 2 -9 4 -20 4 -11 0 -20 -5 -20 -11z"/>
<path d="M3760 5645 c-6 -16 -18 -25 -32 -26 l-23 0 24 -10 c17 -7 21 -14 16
-27 -4 -9 -9 -28 -11 -42 -13 -79 -17 -94 -29 -102 -5 -4 4 -8 20 -8 17 0 25
4 18 8 -8 5 -7 27 5 85 l15 79 31 -6 c21 -5 27 -3 20 4 -6 6 -20 12 -31 13
-17 1 -19 5 -12 29 10 35 2 37 -11 3z"/>
<path d="M3288 5643 c-10 -11 -14 -29 -11 -48 3 -16 6 -40 7 -52 0 -14 5 -18
11 -12 5 5 20 9 35 9 38 0 51 14 60 59 7 39 6 43 -17 52 -35 13 -40 11 -15 -7
24 -16 28 -44 12 -75 -12 -21 -50 -25 -68 -7 -18 18 -15 75 6 87 9 6 12 11 6
11 -6 0 -18 -8 -26 -17z"/>
<path d="M2874 5618 c-23 -18 -27 -19 -21 -5 7 19 -1 21 -23 7 -8 -5 -10 -10
-4 -10 11 0 12 -4 18 -55 2 -16 7 -42 11 -58 4 -16 3 -33 -4 -41 -10 -11 -7
-14 14 -12 25 1 34 11 16 18 -5 2 -13 31 -16 64 -7 55 -5 64 14 83 11 11 25
21 29 21 22 0 45 -30 47 -61 2 -19 6 -46 10 -62 5 -17 3 -33 -5 -42 -8 -9 -8
-15 -2 -15 25 0 25 96 0 163 -13 34 -44 36 -84 5z"/>
<path d="M2470 5605 c0 -8 5 -15 10 -15 6 0 10 7 10 15 0 8 -4 15 -10 15 -5 0
-10 -7 -10 -15z"/>
<path d="M2494 5514 c9 -8 19 -27 22 -42 3 -15 11 -44 19 -64 10 -27 10 -38 1
-42 -8 -3 -8 -5 1 -5 23 -2 23 19 1 94 -18 57 -27 75 -41 75 -17 0 -17 -1 -3
-16z"/>
<path d="M4102 5518 c3 -7 -5 -40 -18 -74 -28 -75 -18 -106 36 -114 19 -3 34
-10 33 -16 -1 -5 7 -10 18 -10 13 0 17 5 14 16 -3 9 6 44 20 78 29 72 30 78
11 85 -10 4 -13 1 -10 -7 6 -16 -33 -118 -49 -128 -20 -13 -54 -9 -67 7 -10
12 -8 27 10 78 12 34 27 65 33 68 5 4 0 12 -13 19 -18 10 -21 9 -18 -2z"/>
<path d="M3280 5492 c0 -15 7 -17 35 -14 19 2 49 -1 67 -7 30 -11 32 -10 17 5
-9 9 -34 18 -55 20 -22 3 -45 7 -51 9 -7 3 -13 -4 -13 -13z"/>
<path d="M3257 5450 c-12 -46 88 -69 134 -30 l24 20 -33 -16 c-41 -20 -104 -8
-108 20 -4 27 -11 29 -17 6z"/>
<path d="M2143 5399 c-13 -5 -23 -11 -23 -13 0 -3 10 -5 23 -4 40 2 43 -1 72
-62 22 -46 34 -60 49 -59 12 0 15 3 8 6 -7 3 -26 31 -42 64 -33 65 -54 81 -87
68z"/>
<path d="M4558 5402 c11 -7 2 -31 -45 -112 -32 -56 -67 -106 -78 -110 -19 -8
-19 -9 3 -9 12 -1 22 -5 22 -11 0 -5 4 -10 10 -10 5 0 7 6 4 14 -3 7 24 63 60
125 35 61 61 111 56 111 -5 0 -17 3 -27 6 -13 4 -15 3 -5 -4z"/>
<path d="M2073 5364 c-16 -16 -17 -28 -3 -19 13 8 74 -120 66 -140 -3 -8 -1
-15 4 -15 6 0 10 5 10 10 0 6 8 10 17 10 15 0 15 1 1 13 -23 17 -62 113 -54
133 5 14 4 15 -8 5 -11 -10 -15 -9 -18 2 -2 13 -5 13 -15 1z"/>
<path d="M1741 5151 c-17 -16 -31 -35 -31 -43 1 -7 7 -1 15 13 16 29 37 41 59
33 22 -8 25 -36 7 -58 -16 -19 -15 -19 8 -3 23 15 25 15 37 -1 8 -9 14 -26 14
-37 0 -14 7 -21 20 -21 28 0 25 10 -22 72 -57 75 -69 81 -107 45z"/>
<path d="M1764 5046 c-7 -28 -1 -42 26 -56 14 -7 24 -5 42 11 22 19 22 20 1
10 -28 -14 -29 -14 -48 5 -9 9 -13 24 -10 35 4 10 4 19 1 19 -3 0 -8 -11 -12
-24z"/>
<path d="M4919 4923 c-9 -10 -14 -40 -14 -77 0 -49 5 -68 23 -90 12 -16 22
-33 22 -38 0 -5 12 -20 28 -34 15 -14 20 -22 12 -18 -8 4 14 -23 50 -60 65
-67 76 -76 65 -53 -4 6 7 -3 23 -20 15 -18 33 -33 39 -33 19 0 120 -105 158
-165 59 -93 108 -185 102 -192 -3 -3 -19 4 -34 15 -53 38 -152 64 -210 57 -61
-7 -71 -17 -40 -38 12 -8 33 -26 47 -38 13 -13 26 -23 28 -21 6 7 92 -31 92
-40 0 -5 4 -7 8 -4 4 2 45 -4 89 -16 l82 -20 35 -84 c39 -93 98 -273 94 -284
-2 -5 -37 19 -78 53 -90 73 -140 96 -201 97 -60 0 -77 -18 -48 -51 11 -13 24
-24 27 -24 4 -1 21 -8 37 -17 42 -22 233 -88 256 -88 19 0 25 -17 48 -120 26
-117 59 -390 48 -390 -3 0 -18 24 -35 53 -45 79 -110 147 -167 173 -63 30 -94
31 -92 4 1 -11 5 -20 10 -20 4 0 5 -4 2 -10 -3 -5 -1 -10 6 -10 7 0 10 -3 6
-6 -10 -11 149 -161 213 -200 l60 -37 0 -102 c0 -100 -15 -296 -26 -324 -7
-22 -12 -11 -29 74 -34 166 -106 255 -206 255 -29 0 -31 -2 -25 -27 4 -16 9
-37 11 -48 2 -11 4 -22 5 -25 1 -3 2 -8 1 -12 0 -5 3 -8 9 -8 5 0 7 -7 4 -15
-4 -8 1 -17 10 -21 9 -3 13 -10 10 -15 -3 -5 8 -21 23 -36 15 -14 21 -23 13
-19 -8 4 -4 -2 10 -14 14 -12 18 -19 10 -15 -8 4 0 -6 18 -22 18 -15 32 -33
32 -39 0 -7 21 -30 47 -51 l47 -40 -28 -119 c-32 -135 -108 -358 -114 -331 -2
9 -8 14 -14 11 -6 -4 -8 1 -3 15 4 13 2 21 -5 21 -7 0 -10 7 -6 15 3 8 1 15
-5 15 -6 0 -9 7 -5 15 3 8 2 15 -2 15 -5 0 -16 22 -25 48 -19 53 -71 122 -92
122 -16 0 -35 -52 -35 -97 0 -37 19 -89 43 -119 9 -11 39 -47 67 -82 49 -60
51 -64 40 -96 -11 -34 -131 -249 -174 -312 l-23 -34 -6 77 c-7 90 -21 139 -50
170 -26 29 -30 29 -63 -2 -24 -22 -26 -29 -20 -70 4 -25 27 -85 52 -134 24
-49 44 -92 44 -96 0 -11 -138 -180 -214 -262 -66 -71 -104 -97 -74 -50 49 74
63 219 30 302 -10 27 -25 51 -31 53 -15 5 -93 -77 -85 -89 3 -5 0 -9 -6 -9 -7
0 -9 -8 -5 -20 3 -11 2 -20 -3 -20 -7 0 -9 -62 -8 -165 l3 -166 -51 -43 c-28
-23 -82 -64 -121 -91 -71 -49 -104 -75 -75 -60 28 15 175 118 217 152 l41 34
194 2 c175 2 197 4 238 24 25 12 55 30 68 40 l24 19 -42 29 c-35 24 -52 29
-104 29 -80 0 -156 -17 -236 -55 l-65 -30 101 103 c55 57 127 136 159 176 l59
74 75 -8 c133 -15 271 1 331 37 25 15 31 25 29 47 -4 32 -18 54 -30 46 -5 -3
-9 -1 -9 5 0 6 -7 8 -15 5 -8 -4 -15 -2 -15 3 0 13 -136 -2 -195 -22 -27 -10
-68 -26 -89 -37 l-40 -20 19 28 c43 65 119 193 150 255 18 36 39 70 47 75 7 6
54 25 103 44 151 55 227 102 275 170 22 31 38 120 22 120 -4 0 -31 -7 -58 -15
-27 -8 -53 -14 -58 -14 -5 0 -12 -3 -15 -8 -3 -4 -25 -20 -48 -35 -59 -39
-110 -85 -156 -143 -22 -27 -37 -41 -32 -30 42 105 93 263 120 369 l32 130 89
54 c119 72 171 113 211 169 35 49 40 72 23 104 -15 27 -49 24 -101 -9 -61 -40
-104 -85 -161 -172 l-50 -75 6 45 c14 105 26 251 26 332 0 48 4 97 9 111 5 13
41 61 81 108 85 100 107 139 112 202 6 66 -1 73 -50 48 -83 -42 -140 -156
-143 -283 -2 -71 -16 -38 -22 51 -4 49 -18 148 -32 221 l-26 132 44 71 c38 61
108 190 112 207 1 3 5 12 9 21 10 23 -10 66 -35 74 -51 16 -146 -112 -156
-211 l-6 -57 -37 104 c-20 57 -46 124 -57 149 -23 53 -23 59 10 142 56 139 61
246 16 322 l-23 39 -37 -42 c-46 -51 -64 -123 -53 -209 4 -31 7 -59 6 -62 0
-3 5 -11 11 -19 9 -11 9 -13 0 -8 -6 4 -28 37 -48 75 -21 37 -65 108 -98 157
-33 50 -101 162 -150 250 -151 271 -224 352 -268 298z"/>
<path d="M1430 4879 c-22 -17 -22 -19 -3 -10 16 8 29 8 48 -1 l25 -11 -27 -31
c-26 -28 -25 -27 12 4 l41 35 -31 17 c-38 21 -35 22 -65 -3z"/>
<path d="M1398 4840 c-8 -24 29 -88 62 -105 42 -22 66 -19 89 11 25 32 28 55
4 25 -10 -12 -28 -23 -41 -26 -27 -5 -74 14 -66 26 3 5 -2 9 -10 9 -9 0 -18
12 -22 28 -3 15 -7 32 -8 37 -2 6 -5 3 -8 -5z"/>
<path d="M1139 4524 c-5 -15 -8 -29 -5 -31 2 -3 7 4 10 15 11 35 36 34 98 -3
63 -37 82 -42 94 -23 5 7 2 9 -8 6 -8 -3 -39 9 -68 28 -67 42 -106 45 -121 8z"/>
<path d="M1130 4472 c0 -4 -10 -12 -22 -17 -11 -6 -25 -20 -29 -33 -6 -15 -5
-21 1 -17 6 3 10 12 10 20 0 25 32 25 79 0 65 -37 84 -52 76 -64 -14 -24 4 -9
20 16 14 21 15 25 2 20 -16 -6 -117 57 -117 73 0 6 -4 10 -10 10 -5 0 -10 -3
-10 -8z"/>
<path d="M1051 4393 c-1 -6 -4 -20 -7 -30 -4 -11 -3 -14 3 -6 11 15 145 -66
138 -84 -8 -24 10 -13 22 12 6 14 7 22 1 19 -12 -7 -118 62 -118 77 0 6 -6 9
-14 6 -8 -3 -17 -1 -20 6 -3 9 -5 9 -5 0z"/>
<path d="M3114 3901 c-93 -24 -188 -101 -233 -189 -87 -170 -60 -407 60 -537
79 -85 197 -124 320 -104 122 20 213 91 270 212 27 58 32 82 36 170 11 207
-62 351 -215 423 -60 28 -178 41 -238 25z m181 -70 c60 -27 121 -102 144 -175
83 -269 -32 -536 -231 -536 -106 0 -184 55 -234 163 -28 59 -29 69 -29 202 0
132 2 143 28 200 52 111 126 165 227 165 32 0 72 -8 95 -19z"/>
<path d="M1565 3883 c44 -10 45 -18 45 -397 0 -199 -4 -366 -8 -373 -4 -7 -19
-16 -32 -22 -18 -7 57 -10 246 -10 l272 -1 12 65 c7 36 9 69 5 73 -4 4 -10 0
-13 -8 -3 -8 -18 -27 -33 -42 l-27 -28 -161 0 -161 0 0 165 0 165 146 0 146 0
11 -30 c19 -51 27 -34 27 60 0 53 -4 90 -10 90 -5 0 -10 -6 -10 -14 0 -36 -40
-46 -177 -46 l-133 0 0 150 0 150 25 6 c14 3 85 5 157 2 120 -3 132 -6 148
-26 10 -12 20 -28 23 -35 11 -30 19 7 12 58 l-6 55 -262 -1 c-144 -1 -253 -3
-242 -6z"/>
<path d="M2220 3883 c14 -3 28 -10 32 -17 4 -6 8 -178 8 -382 0 -391 1 -385
-45 -397 -11 -3 101 -4 249 -3 l269 1 14 60 c18 80 13 99 -14 52 -13 -20 -34
-42 -48 -47 -15 -6 -94 -10 -176 -10 l-149 0 0 359 c0 377 -1 373 45 384 11 2
-32 5 -95 4 -63 0 -104 -2 -90 -4z"/>
<path d="M3700 3881 l25 -7 3 -386 2 -386 -27 -10 c-22 -8 -3 -10 82 -10 61 0
101 3 90 5 -43 11 -45 19 -45 183 l0 157 105 5 c86 5 115 11 159 32 88 43 136
136 121 236 -8 55 -19 76 -58 118 -56 59 -114 72 -310 71 -95 -1 -161 -4 -147
-8z m327 -68 c69 -34 100 -108 82 -195 -20 -90 -89 -132 -212 -126 l-62 3 -3
160 c-1 87 0 166 3 174 8 20 143 9 192 -16z"/>
<path d="M4320 3881 l25 -7 0 -384 0 -384 -25 -13 c-21 -11 20 -13 242 -13
l268 0 5 23 c17 76 23 112 20 115 -2 2 -21 -14 -43 -37 l-39 -42 -159 3 -159
3 -3 163 -2 162 143 0 c148 0 167 -5 167 -42 0 -10 5 -18 10 -18 6 0 10 37 10
90 0 53 -4 90 -10 90 -5 0 -10 -9 -10 -20 0 -32 -33 -40 -174 -40 l-136 0 0
149 c0 127 2 150 16 155 21 8 209 8 269 -1 41 -5 50 -10 59 -35 17 -44 26 -33
26 32 l0 60 -262 -1 c-145 -1 -252 -4 -238 -8z"/>
<path d="M811 3748 c0 -9 -4 -25 -7 -35 -5 -14 -4 -15 4 -4 8 12 16 10 46 -8
20 -13 34 -27 30 -32 -10 -16 -74 -38 -91 -32 -11 4 -14 2 -9 -5 10 -17 -41
-27 -70 -13 -28 12 -33 -3 -6 -18 18 -10 106 -12 97 -2 -7 6 94 51 108 47 6
-1 9 -1 4 2 -4 2 4 13 18 24 16 12 25 29 25 46 l0 27 -13 -24 c-22 -43 -39
-46 -85 -15 -22 16 -43 36 -45 44 -4 12 -5 12 -6 -2z"/>
<path d="M697 3693 c-4 -3 -7 -11 -7 -17 0 -6 5 -5 12 2 17 17 38 15 61 -5 19
-17 20 -17 8 5 -11 21 -58 31 -74 15z"/>
<path d="M800 3572 c0 -18 50 -62 70 -62 11 0 29 9 40 20 25 25 27 49 2 27
-25 -23 -64 -21 -90 3 -12 12 -22 17 -22 12z"/>
<path d="M754 2896 c-26 -12 -44 -33 -44 -52 0 -3 14 6 31 18 23 18 32 20 38
9 6 -10 10 -9 14 4 5 11 3 14 -5 9 -8 -5 -9 -2 -5 9 3 10 5 17 4 17 -1 -1 -16
-7 -33 -14z"/>
<path d="M855 2900 c3 -5 8 -10 11 -10 2 0 4 5 4 10 0 6 -5 10 -11 10 -5 0 -7
-4 -4 -10z"/>
<path d="M878 2850 c3 -24 -1 -32 -27 -48 -34 -20 -93 -21 -120 0 -9 7 -6 3 7
-9 16 -17 35 -23 65 -23 60 0 87 22 87 71 0 21 -4 39 -8 39 -5 0 -7 -13 -4
-30z"/>
<path d="M1507 2794 c-4 -4 -7 -23 -6 -43 0 -33 1 -34 11 -13 10 19 19 22 70
22 l59 0 -3 -195 -3 -195 30 0 30 0 -3 195 -3 195 59 0 c51 0 60 -3 70 -22 10
-21 11 -19 9 17 l-2 40 -156 3 c-85 1 -158 -1 -162 -4z"/>
<path d="M2187 2780 c-20 -11 -49 -39 -65 -62 -22 -35 -28 -55 -31 -120 -3
-68 0 -85 23 -131 37 -75 81 -102 166 -102 55 0 73 4 107 27 115 76 118 290 6
376 -49 36 -149 42 -206 12z m178 -43 c79 -79 71 -267 -14 -324 -127 -85 -249
70 -197 249 22 76 60 108 128 108 43 0 54 -4 83 -33z"/>
<path d="M2788 2792 c10 -7 12 -55 10 -215 l-3 -207 35 0 35 0 -3 100 -3 100
75 0 c50 0 76 -4 79 -12 3 -7 5 7 5 32 0 25 -2 39 -5 33 -3 -9 -29 -13 -79
-13 l-75 0 3 78 3 77 77 0 c65 0 80 -3 93 -20 15 -19 15 -18 13 15 l-3 35
-135 3 c-75 1 -129 -2 -122 -6z"/>
<path d="M3373 2793 c16 -4 18 -20 15 -214 l-3 -209 35 0 35 0 -3 207 c-2 160
0 208 10 215 8 4 -12 7 -47 7 -33 -1 -52 -3 -42 -6z"/>
<path d="M3823 2789 c15 -9 17 -30 17 -209 0 -149 -3 -200 -12 -203 -7 -3 4
-6 24 -6 36 -1 37 0 28 25 -12 30 -14 327 -2 320 4 -2 61 -84 127 -180 65 -97
125 -176 132 -176 10 0 13 44 13 204 0 173 2 207 16 220 14 15 11 16 -32 16
-41 0 -45 -2 -31 -13 16 -11 17 -30 15 -171 l-3 -159 -114 171 -114 172 -41 0
c-33 -1 -37 -3 -23 -11z"/>
<path d="M4588 2780 c-66 -35 -98 -101 -98 -199 0 -83 32 -154 87 -191 30 -20
49 -25 103 -25 55 0 73 4 107 27 58 38 87 103 87 193 0 84 -25 139 -80 182
-49 37 -150 44 -206 13z m177 -43 c41 -41 59 -103 52 -182 -5 -74 -28 -120
-70 -145 -64 -39 -143 -18 -176 49 -46 89 -35 214 24 276 29 31 38 35 85 35
46 0 56 -4 85 -33z"/>
<path d="M948 2475 c-3 -3 -35 -14 -72 -25 l-66 -19 -16 22 c-10 14 -15 16
-13 7 3 -30 -1 -39 -23 -43 -20 -4 -20 -4 4 -6 15 0 32 -9 37 -18 9 -16 10
-16 11 3 0 18 10 23 60 34 59 13 100 33 89 44 -3 3 -8 4 -11 1z"/>
<path d="M991 2147 c-36 -18 -67 -39 -70 -47 -4 -13 -2 -13 12 -1 9 7 26 11
37 8 11 -3 18 0 17 6 -1 6 14 16 33 23 19 6 36 19 38 28 4 20 10 21 -67 -17z"/>
<path d="M1073 2124 c34 -42 -12 -80 -60 -49 -14 9 -22 12 -19 6 12 -19 64
-41 80 -35 29 11 31 53 5 77 -22 21 -23 21 -6 1z"/>
<path d="M920 2051 c0 -13 39 -35 48 -27 3 3 0 6 -6 6 -6 0 -18 7 -26 16 -9 8
-16 11 -16 5z"/>
<path d="M1230 1840 c0 -5 5 -10 11 -10 5 0 7 5 4 10 -3 6 -8 10 -11 10 -2 0
-4 -4 -4 -10z"/>
<path d="M1168 1775 c-32 -25 -58 -52 -58 -61 0 -15 46 -64 61 -64 5 0 9 -11
9 -24 0 -13 8 -30 18 -37 15 -12 16 -12 6 1 -5 8 -9 21 -8 28 1 6 2 16 3 21 2
15 111 82 122 75 6 -3 3 5 -6 20 -19 28 -27 34 -20 14 4 -11 -47 -52 -103 -83
-18 -10 -62 22 -62 45 0 23 107 100 129 92 8 -3 11 0 7 7 -13 21 -41 11 -98
-34z"/>
<path d="M1355 1658 c6 -16 -84 -78 -112 -78 -23 0 -25 -32 -4 -53 11 -10 13
-9 9 3 -5 17 116 105 131 95 5 -3 4 6 -2 20 -12 25 -30 36 -22 13z"/>
<path d="M1513 1350 c-51 -54 -59 -67 -47 -77 16 -16 28 -17 18 -2 -8 14 97
121 113 114 18 -6 16 -2 -4 15 -16 14 -23 9 -80 -50z"/>
<path d="M4467 1313 c-20 -27 -41 -53 -46 -59 -32 -38 -32 -156 -1 -214 6 -11
8 -20 4 -20 -3 0 -1 -7 6 -15 7 -8 9 -15 5 -15 -4 0 -3 -6 3 -12 16 -21 25
-78 12 -78 -6 0 -9 -4 -6 -9 4 -5 0 -11 -6 -13 -7 -3 10 -7 37 -11 28 -3 111
-26 185 -50 158 -52 221 -63 278 -47 52 14 98 52 105 87 6 34 -33 75 -100 105
-75 33 -280 23 -379 -18 -27 -11 -34 -12 -29 -2 3 7 0 5 -8 -5 -21 -26 -31 -4
-13 30 48 93 61 223 31 308 -31 90 -37 92 -78 38z"/>
<path d="M1400 1224 c0 -8 5 -12 10 -9 6 3 10 10 10 16 0 5 -4 9 -10 9 -5 0
-10 -7 -10 -16z"/>
<path d="M1825 1187 c3 -7 -7 -31 -22 -53 -61 -88 -59 -87 -83 -74 -19 10 -20
10 -8 -9 11 -17 10 -25 -1 -44 -14 -22 -14 -22 7 -4 13 12 29 17 44 13 20 -6
21 -5 6 6 -15 11 -12 18 28 69 43 56 54 91 34 104 -5 3 -7 0 -5 -8z"/>
<path d="M4087 1089 c-75 -62 -199 -272 -214 -362 -3 -20 -10 -40 -16 -44 -12
-8 85 -39 181 -58 115 -23 402 -20 402 4 0 15 -122 72 -185 86 -79 19 -211 14
-290 -10 -56 -16 -72 -10 -35 13 14 8 57 47 95 86 98 100 156 222 140 294 -7
31 -33 28 -78 -9z"/>
<path d="M2062 946 c-18 -39 -32 -77 -32 -83 0 -20 49 -48 62 -35 7 7 5 10 -7
9 -9 -1 -22 6 -28 15 -9 13 -5 30 18 78 16 34 36 65 43 69 11 6 10 9 -4 13
-15 4 -25 -9 -52 -66z"/>
<path d="M3619 970 c-51 -27 -111 -98 -165 -197 -25 -46 -62 -101 -83 -123
-21 -22 -32 -40 -26 -40 7 0 48 -36 91 -81 99 -102 180 -163 269 -205 86 -40
115 -49 115 -35 0 6 -12 36 -27 67 -51 109 -179 202 -310 228 -62 12 -65 14
-39 21 16 4 63 40 103 78 93 89 133 164 133 249 0 65 -5 68 -61 38z"/>
<path d="M2185 960 c8 -13 -42 -110 -61 -117 -16 -6 -15 -33 1 -45 15 -11 27
-10 20 2 -10 16 57 140 75 140 11 1 10 4 -4 15 -22 17 -40 20 -31 5z"/>
<path d="M2483 840 c4 -13 -11 -66 -30 -110 -3 -8 -7 -18 -8 -22 -2 -5 -3 -9
-5 -10 -1 -2 -3 -11 -5 -20 -2 -14 3 -18 23 -17 17 1 21 3 10 6 -22 6 -23 -2
7 82 20 55 23 75 15 89 -7 11 -10 12 -7 2z"/>
<path d="M3698 643 c7 -3 16 -2 19 1 4 3 -2 6 -13 5 -11 0 -14 -3 -6 -6z"/>
<path d="M3628 633 c7 -3 16 -2 19 1 4 3 -2 6 -13 5 -11 0 -14 -3 -6 -6z"/>
<path d="M3533 623 c9 -2 25 -2 35 0 9 3 1 5 -18 5 -19 0 -27 -2 -17 -5z"/>
<path d="M3125 606 c45 -16 120 -19 150 -6 15 6 7 9 -30 9 -27 1 -75 3 -105 6
l-55 5 40 -14z"/>
<path d="M2406 601 c-4 -5 -2 -12 3 -15 5 -4 12 -2 15 3 4 5 2 12 -3 15 -5 4
-12 2 -15 -3z"/>
</g>
</svg>
